<svg xmlns="http://www.w3.org/2000/svg" width="617.886" height="80.247" viewBox="0 0 617.886 80.247"><defs><style>.a{fill:#3f51b5;}</style></defs><path class="a" d="M-758.413,3860.246H-1376.3c11.5-11.6,27.631-22.467,47.942-32.3,20.115-9.74,43.939-18.282,70.812-25.389a657.005,657.005,0,0,1,88.67-16.6A849.889,849.889,0,0,1-1067.357,3780a849.889,849.889,0,0,1,101.518,5.951,657.028,657.028,0,0,1,88.671,16.6c26.873,7.107,50.7,15.649,70.812,25.389,20.311,9.836,36.441,20.7,47.94,32.3l0,0h0Z" transform="translate(1376.299 -3780)"/></svg>